<?xml version="1.0" standalone="no"?>
<!DOCTYPE svg PUBLIC "-//W3C//DTD SVG 20010904//EN"
 "http://www.w3.org/TR/2001/REC-SVG-20010904/DTD/svg10.dtd">
<svg version="1.0" xmlns="http://www.w3.org/2000/svg"
 width="611.000000pt" height="611.000000pt" viewBox="0 0 611.000000 611.000000"
 preserveAspectRatio="xMidYMid meet">
<metadata>
Created by potrace 1.11, written by Peter Selinger 2001-2013
</metadata>
<g transform="translate(0.000000,611.000000) scale(0.100000,-0.100000)"
fill="#000000" stroke="none">
<path d="M2849 4756 c-2 -2 -38 -6 -79 -9 -91 -7 -134 -13 -270 -38 -137 -25
-148 -27 -170 -34 -10 -3 -27 -8 -39 -10 -46 -9 -175 -48 -277 -84 -441 -156
-809 -386 -1135 -711 -85 -85 -192 -200 -236 -256 -281 -353 -473 -751 -571
-1184 -25 -106 -38 -183 -57 -340 -2 -14 -7 -86 -10 -160 l-7 -135 219 0 218
0 0 -30 1 -30 304 -3 c229 -2 306 -5 311 -15 6 -9 285 -12 1303 -12 1295 1
1295 1 1298 -20 4 -24 21 -23 28 2 3 10 11 18 18 17 6 -1 17 -2 22 -3 6 0 9
-4 9 -8 -3 -18 2 -33 10 -33 5 0 11 10 13 23 l3 22 650 1 c358 1 656 2 663 3
7 0 10 6 7 11 -4 6 49 10 152 10 87 1 223 2 303 3 l144 2 1 30 0 30 215 0 215
0 -1 95 c0 92 -9 219 -20 290 -4 31 -11 72 -29 180 -21 121 -85 336 -153 505
-148 373 -355 689 -644 980 -292 295 -602 505 -983 667 -289 123 -542 188
-905 234 -50 6 -516 15 -521 10z"/>
<path d="M5704 1699 c-41 -11 -74 -47 -54 -59 9 -5 19 -2 29 11 26 31 73 35
105 7 39 -33 28 -67 -35 -113 -36 -26 -49 -41 -49 -60 0 -16 6 -25 15 -25 8 0
14 3 13 8 -5 20 15 49 47 66 43 23 53 35 58 67 11 72 -51 119 -129 98z"/>
<path d="M287 1624 c-5 -5 29 -80 91 -203 15 -30 32 -54 37 -54 8 -1 132 235
134 255 1 3 -7 4 -16 1 -11 -3 -38 -48 -68 -110 l-50 -106 -49 106 c-45 96
-65 125 -79 111z"/>
<path d="M711 1617 c-6 -6 -11 -14 -11 -19 0 -4 -24 -57 -54 -117 -40 -81 -51
-111 -41 -115 16 -6 27 7 44 49 9 25 17 30 39 29 15 -1 46 -3 69 -3 38 -1 42
-4 53 -35 10 -32 35 -54 43 -38 2 4 -20 57 -49 117 -29 61 -53 115 -53 121 -1
17 -27 24 -40 11z m67 -142 c-5 -5 -32 -7 -70 -6 l-37 1 27 59 27 58 28 -55
c15 -30 26 -56 25 -57z"/>
<path d="M959 1626 c-4 -5 -1 -236 3 -247 6 -15 25 -16 135 -10 35 2 90 56 97
97 7 36 -8 99 -28 120 -26 25 -62 36 -132 38 -41 2 -74 3 -75 2z m149 -37 c31
-11 62 -59 62 -96 0 -29 -38 -83 -66 -93 -14 -6 -45 -9 -70 -8 l-44 1 0 104 0
103 44 0 c23 0 57 -5 74 -11z"/>
<path d="M1525 1619 c-37 -10 -55 -34 -55 -71 0 -34 26 -53 94 -68 60 -13 84
-29 80 -53 -4 -26 -8 -29 -56 -34 -27 -3 -58 1 -80 10 -34 14 -48 13 -48 -3 0
-11 52 -31 96 -37 56 -7 109 17 118 52 9 35 -15 73 -52 81 -15 3 -48 12 -74
21 -40 12 -48 19 -48 39 0 41 60 54 138 29 13 -5 22 -3 22 3 0 27 -82 45 -135
31z"/>
<path d="M1794 1622 c-14 -9 -14 -244 0 -254 17 -12 24 0 21 36 -3 26 2 39 24
60 l28 26 56 -63 c31 -35 63 -64 71 -64 22 0 16 9 -87 124 l-20 22 57 55 c33
31 53 57 47 61 -10 5 -90 -62 -143 -118 -25 -27 -36 -14 -33 40 3 56 -6 85
-21 75z"/>
<path d="M2139 1505 c-32 -68 -59 -129 -59 -134 0 -21 31 2 46 35 16 34 17 34
84 34 65 0 69 -1 78 -27 16 -41 28 -56 40 -49 7 4 -4 40 -32 99 -23 51 -49
107 -57 124 -26 60 -37 51 -100 -82z m101 18 c11 -25 18 -48 16 -50 -2 -3 -19
-5 -38 -5 -73 -1 -70 -4 -41 56 15 30 30 53 35 50 4 -3 17 -26 28 -51z"/>
<path d="M2557 1624 c-9 -10 114 -261 128 -261 7 0 34 46 60 101 66 142 76
166 68 166 -19 -1 -33 -21 -73 -110 -24 -52 -46 -98 -50 -103 -3 -4 -29 40
-56 97 -45 97 -64 123 -77 110z"/>
<path d="M2919 1622 c-3 -25 -4 -239 -1 -249 2 -6 9 -10 16 -7 18 7 18 251 0
258 -8 3 -14 2 -15 -2z"/>
<path d="M3324 1621 c-119 -36 -126 -200 -10 -246 42 -17 85 -13 124 13 13 8
22 11 21 6 -4 -25 1 -38 12 -27 12 12 16 103 6 120 -8 13 -80 8 -85 -6 -2 -6
9 -11 27 -11 16 0 33 -4 36 -10 10 -17 -13 -48 -46 -59 -51 -18 -76 -13 -114
20 -27 24 -35 39 -35 66 0 45 26 89 62 104 33 13 91 5 108 -16 13 -16 40 -21
40 -7 -1 36 -92 69 -146 53z"/>
<path d="M3939 1620 c-5 -24 -3 -243 2 -251 9 -15 23 9 25 44 1 15 2 32 3 37
0 6 19 10 40 10 35 0 44 -5 67 -37 34 -46 54 -64 65 -57 4 2 -6 24 -22 48
l-31 43 31 31 c40 40 35 92 -12 122 -21 13 -166 22 -168 10z m148 -28 c6 -4
16 -19 22 -34 15 -41 -12 -70 -69 -72 -73 -4 -76 -1 -74 57 1 29 2 53 3 55 3
6 107 1 118 -6z"/>
<path d="M4346 1614 c-9 -8 -16 -19 -16 -24 0 -5 -22 -56 -50 -114 -27 -58
-50 -107 -50 -109 0 -2 7 -4 16 -4 9 0 24 18 34 41 l17 41 65 -3 c64 -4 66 -4
87 -43 21 -37 41 -51 41 -29 0 13 -118 260 -124 260 -2 0 -12 -7 -20 -16z m74
-144 c0 -6 -100 -3 -106 3 -5 5 14 52 35 86 15 23 15 23 42 -30 16 -30 28 -56
29 -59z"/>
<path d="M5122 1529 c3 -96 4 -99 36 -131 29 -30 38 -33 88 -32 93 2 120 46
119 188 0 54 -3 70 -15 71 -13 2 -15 -11 -15 -82 1 -99 -15 -137 -64 -148 -87
-19 -121 22 -121 147 0 71 -3 85 -16 85 -14 0 -15 -14 -12 -98z"/>
<path d="M3663 1609 c-34 -10 -82 -60 -84 -87 -9 -98 43 -162 130 -162 59 0
121 67 121 131 0 12 -10 38 -21 59 -31 55 -85 76 -146 59z m98 -45 c19 -17 36
-60 33 -81 -1 -7 -2 -19 -3 -27 0 -7 -13 -25 -27 -40 -78 -77 -200 33 -137
124 9 14 24 31 33 37 19 16 78 8 101 -13z"/>
<path d="M4750 1492 c0 -108 2 -129 15 -129 12 0 15 18 15 101 l1 101 92 -96
c51 -53 99 -99 107 -101 13 -5 15 12 15 123 0 110 -2 129 -15 129 -14 0 -16
-15 -15 -100 1 -87 -5 -121 -17 -91 -7 21 -172 191 -184 191 -11 0 -14 -27
-14 -128z"/>
<path d="M5697 1400 c-6 -25 20 -50 29 -26 7 19 -1 46 -15 46 -5 0 -11 -9 -14
-20z"/>
</g>
</svg>
